<mxfile host="Electron" agent="Mozilla/5.0 (Windows NT 10.0; Win64; x64) AppleWebKit/537.36 (KHTML, like Gecko) draw.io/26.2.15 Chrome/134.0.6998.205 Electron/35.2.1 Safari/537.36" version="26.2.15">
  <diagram name="Page-1" id="2YBvvXClWsGukQMizWep">
    <mxGraphModel dx="1092" dy="2472" grid="1" gridSize="10" guides="1" tooltips="1" connect="1" arrows="1" fold="1" page="1" pageScale="1" pageWidth="850" pageHeight="1100" math="0" shadow="0">
      <root>
        <mxCell id="0" />
        <mxCell id="1" parent="0" />
        <mxCell id="HDXx2nbeLTTs_FpXoXqB-1" value="" style="rounded=0;whiteSpace=wrap;html=1;glass=0;shadow=0;" vertex="1" parent="1">
          <mxGeometry x="30" y="250" width="720" height="200" as="geometry" />
        </mxCell>
        <mxCell id="HDXx2nbeLTTs_FpXoXqB-2" value="Admin" style="shape=umlLifeline;perimeter=lifelinePerimeter;whiteSpace=wrap;html=1;container=0;dropTarget=0;collapsible=0;recursiveResize=0;outlineConnect=0;portConstraint=eastwest;newEdgeStyle={&quot;edgeStyle&quot;:&quot;elbowEdgeStyle&quot;,&quot;elbow&quot;:&quot;vertical&quot;,&quot;curved&quot;:0,&quot;rounded&quot;:0};" vertex="1" parent="1">
          <mxGeometry x="60" y="40" width="100" height="510" as="geometry" />
        </mxCell>
        <mxCell id="HDXx2nbeLTTs_FpXoXqB-4" value="System" style="shape=umlLifeline;perimeter=lifelinePerimeter;whiteSpace=wrap;html=1;container=0;dropTarget=0;collapsible=0;recursiveResize=0;outlineConnect=0;portConstraint=eastwest;newEdgeStyle={&quot;edgeStyle&quot;:&quot;elbowEdgeStyle&quot;,&quot;elbow&quot;:&quot;vertical&quot;,&quot;curved&quot;:0,&quot;rounded&quot;:0};" vertex="1" parent="1">
          <mxGeometry x="440" y="40" width="100" height="530" as="geometry" />
        </mxCell>
        <mxCell id="HDXx2nbeLTTs_FpXoXqB-5" value="" style="html=1;points=[];perimeter=orthogonalPerimeter;outlineConnect=0;targetShapes=umlLifeline;portConstraint=eastwest;newEdgeStyle={&quot;edgeStyle&quot;:&quot;elbowEdgeStyle&quot;,&quot;elbow&quot;:&quot;vertical&quot;,&quot;curved&quot;:0,&quot;rounded&quot;:0};" vertex="1" parent="HDXx2nbeLTTs_FpXoXqB-4">
          <mxGeometry x="45" y="80" width="10" height="430" as="geometry" />
        </mxCell>
        <mxCell id="HDXx2nbeLTTs_FpXoXqB-7" value="alt" style="rounded=0;whiteSpace=wrap;html=1;" vertex="1" parent="1">
          <mxGeometry x="30" y="250" width="50" height="30" as="geometry" />
        </mxCell>
        <mxCell id="HDXx2nbeLTTs_FpXoXqB-8" value="" style="endArrow=classic;html=1;rounded=0;" edge="1" parent="1" target="HDXx2nbeLTTs_FpXoXqB-5">
          <mxGeometry width="50" height="50" relative="1" as="geometry">
            <mxPoint x="110" y="150" as="sourcePoint" />
            <mxPoint x="230" y="150" as="targetPoint" />
          </mxGeometry>
        </mxCell>
        <mxCell id="HDXx2nbeLTTs_FpXoXqB-16" value="" style="endArrow=none;dashed=1;html=1;rounded=0;exitX=0;exitY=0.5;exitDx=0;exitDy=0;entryX=1;entryY=0.5;entryDx=0;entryDy=0;" edge="1" parent="1">
          <mxGeometry width="50" height="50" relative="1" as="geometry">
            <mxPoint x="50" y="450" as="sourcePoint" />
            <mxPoint x="539.9999999999998" y="450" as="targetPoint" />
          </mxGeometry>
        </mxCell>
        <mxCell id="HDXx2nbeLTTs_FpXoXqB-21" value="view pending gift listings" style="text;html=1;align=center;verticalAlign=middle;resizable=0;points=[];autosize=1;strokeColor=none;fillColor=none;" vertex="1" parent="1">
          <mxGeometry x="229" y="120" width="150" height="30" as="geometry" />
        </mxCell>
        <mxCell id="HDXx2nbeLTTs_FpXoXqB-25" value="bring all pending&amp;nbsp; gifts" style="text;html=1;align=center;verticalAlign=middle;resizable=0;points=[];autosize=1;strokeColor=none;fillColor=none;" vertex="1" parent="1">
          <mxGeometry x="530" y="170" width="140" height="30" as="geometry" />
        </mxCell>
        <mxCell id="HDXx2nbeLTTs_FpXoXqB-26" value="Database" style="shape=umlLifeline;perimeter=lifelinePerimeter;whiteSpace=wrap;html=1;container=0;dropTarget=0;collapsible=0;recursiveResize=0;outlineConnect=0;portConstraint=eastwest;newEdgeStyle={&quot;edgeStyle&quot;:&quot;elbowEdgeStyle&quot;,&quot;elbow&quot;:&quot;vertical&quot;,&quot;curved&quot;:0,&quot;rounded&quot;:0};" vertex="1" parent="1">
          <mxGeometry x="660" y="40" width="100" height="510" as="geometry" />
        </mxCell>
        <mxCell id="HDXx2nbeLTTs_FpXoXqB-27" value="" style="html=1;points=[];perimeter=orthogonalPerimeter;outlineConnect=0;targetShapes=umlLifeline;portConstraint=eastwest;newEdgeStyle={&quot;edgeStyle&quot;:&quot;elbowEdgeStyle&quot;,&quot;elbow&quot;:&quot;vertical&quot;,&quot;curved&quot;:0,&quot;rounded&quot;:0};" vertex="1" parent="HDXx2nbeLTTs_FpXoXqB-26">
          <mxGeometry x="45" y="150" width="10" height="50" as="geometry" />
        </mxCell>
        <mxCell id="HDXx2nbeLTTs_FpXoXqB-28" value="" style="endArrow=classic;html=1;rounded=0;" edge="1" parent="1" target="HDXx2nbeLTTs_FpXoXqB-26">
          <mxGeometry width="50" height="50" relative="1" as="geometry">
            <mxPoint x="500" y="200" as="sourcePoint" />
            <mxPoint x="550" y="150" as="targetPoint" />
          </mxGeometry>
        </mxCell>
        <mxCell id="HDXx2nbeLTTs_FpXoXqB-29" value="" style="endArrow=classic;html=1;rounded=0;" edge="1" parent="1" target="HDXx2nbeLTTs_FpXoXqB-2">
          <mxGeometry width="50" height="50" relative="1" as="geometry">
            <mxPoint x="710" y="230" as="sourcePoint" />
            <mxPoint x="630" y="230" as="targetPoint" />
          </mxGeometry>
        </mxCell>
        <mxCell id="HDXx2nbeLTTs_FpXoXqB-30" value="display list of pending gifts" style="text;html=1;align=center;verticalAlign=middle;resizable=0;points=[];autosize=1;strokeColor=none;fillColor=none;" vertex="1" parent="1">
          <mxGeometry x="224" y="200" width="160" height="30" as="geometry" />
        </mxCell>
        <mxCell id="HDXx2nbeLTTs_FpXoXqB-34" value="" style="endArrow=none;dashed=1;html=1;rounded=0;exitX=-0.001;exitY=0.569;exitDx=0;exitDy=0;exitPerimeter=0;entryX=1.008;entryY=0.572;entryDx=0;entryDy=0;entryPerimeter=0;" edge="1" parent="1" source="HDXx2nbeLTTs_FpXoXqB-1" target="HDXx2nbeLTTs_FpXoXqB-1">
          <mxGeometry width="50" height="50" relative="1" as="geometry">
            <mxPoint x="50" y="360" as="sourcePoint" />
            <mxPoint x="530" y="364" as="targetPoint" />
          </mxGeometry>
        </mxCell>
        <mxCell id="HDXx2nbeLTTs_FpXoXqB-35" value="" style="endArrow=classic;html=1;rounded=0;" edge="1" parent="1">
          <mxGeometry width="50" height="50" relative="1" as="geometry">
            <mxPoint x="110" y="280" as="sourcePoint" />
            <mxPoint x="489.5" y="280" as="targetPoint" />
          </mxGeometry>
        </mxCell>
        <mxCell id="HDXx2nbeLTTs_FpXoXqB-36" value="approve gift" style="text;html=1;align=center;verticalAlign=middle;resizable=0;points=[];autosize=1;strokeColor=none;fillColor=none;" vertex="1" parent="1">
          <mxGeometry x="264" y="250" width="80" height="30" as="geometry" />
        </mxCell>
        <mxCell id="HDXx2nbeLTTs_FpXoXqB-37" value="" style="endArrow=classic;html=1;rounded=0;" edge="1" parent="1">
          <mxGeometry width="50" height="50" relative="1" as="geometry">
            <mxPoint x="110" y="390" as="sourcePoint" />
            <mxPoint x="490" y="390" as="targetPoint" />
          </mxGeometry>
        </mxCell>
        <mxCell id="HDXx2nbeLTTs_FpXoXqB-38" value="reject gift" style="text;html=1;align=center;verticalAlign=middle;resizable=0;points=[];autosize=1;strokeColor=none;fillColor=none;" vertex="1" parent="1">
          <mxGeometry x="260" y="360" width="70" height="30" as="geometry" />
        </mxCell>
        <mxCell id="HDXx2nbeLTTs_FpXoXqB-39" value="" style="endArrow=classic;html=1;rounded=0;" edge="1" parent="1">
          <mxGeometry width="50" height="50" relative="1" as="geometry">
            <mxPoint x="495" y="320" as="sourcePoint" />
            <mxPoint x="705" y="320" as="targetPoint" />
          </mxGeometry>
        </mxCell>
        <mxCell id="HDXx2nbeLTTs_FpXoXqB-40" value="update gift status(approved)" style="text;html=1;align=center;verticalAlign=middle;resizable=0;points=[];autosize=1;strokeColor=none;fillColor=none;" vertex="1" parent="1">
          <mxGeometry x="520" y="290" width="170" height="30" as="geometry" />
        </mxCell>
        <mxCell id="HDXx2nbeLTTs_FpXoXqB-41" value="update gift status(rejected)" style="text;html=1;align=center;verticalAlign=middle;resizable=0;points=[];autosize=1;strokeColor=none;fillColor=none;" vertex="1" parent="1">
          <mxGeometry x="535" y="390" width="160" height="30" as="geometry" />
        </mxCell>
        <mxCell id="HDXx2nbeLTTs_FpXoXqB-42" value="" style="endArrow=classic;html=1;rounded=0;" edge="1" parent="1">
          <mxGeometry width="50" height="50" relative="1" as="geometry">
            <mxPoint x="500" y="420" as="sourcePoint" />
            <mxPoint x="710" y="420" as="targetPoint" />
          </mxGeometry>
        </mxCell>
        <mxCell id="HDXx2nbeLTTs_FpXoXqB-43" value="" style="endArrow=classic;html=1;rounded=0;" edge="1" parent="1">
          <mxGeometry width="50" height="50" relative="1" as="geometry">
            <mxPoint x="482.46" y="540" as="sourcePoint" />
            <mxPoint x="107.5314285714286" y="540" as="targetPoint" />
          </mxGeometry>
        </mxCell>
        <mxCell id="HDXx2nbeLTTs_FpXoXqB-44" value="action completed" style="text;html=1;align=center;verticalAlign=middle;resizable=0;points=[];autosize=1;strokeColor=none;fillColor=none;" vertex="1" parent="1">
          <mxGeometry x="240" y="500" width="110" height="30" as="geometry" />
        </mxCell>
        <mxCell id="HDXx2nbeLTTs_FpXoXqB-46" value="User" style="shape=umlLifeline;perimeter=lifelinePerimeter;whiteSpace=wrap;html=1;container=0;dropTarget=0;collapsible=0;recursiveResize=0;outlineConnect=0;portConstraint=eastwest;newEdgeStyle={&quot;edgeStyle&quot;:&quot;elbowEdgeStyle&quot;,&quot;elbow&quot;:&quot;vertical&quot;,&quot;curved&quot;:0,&quot;rounded&quot;:0};" vertex="1" parent="1">
          <mxGeometry x="830" y="40" width="100" height="510" as="geometry" />
        </mxCell>
        <mxCell id="HDXx2nbeLTTs_FpXoXqB-47" value="" style="endArrow=classic;html=1;rounded=0;" edge="1" parent="1" target="HDXx2nbeLTTs_FpXoXqB-46">
          <mxGeometry width="50" height="50" relative="1" as="geometry">
            <mxPoint x="500" y="500" as="sourcePoint" />
            <mxPoint x="550" y="450" as="targetPoint" />
          </mxGeometry>
        </mxCell>
        <mxCell id="HDXx2nbeLTTs_FpXoXqB-48" value="notify gift owner of decision" style="text;html=1;align=center;verticalAlign=middle;resizable=0;points=[];autosize=1;strokeColor=none;fillColor=none;" vertex="1" parent="1">
          <mxGeometry x="525" y="470" width="160" height="30" as="geometry" />
        </mxCell>
      </root>
    </mxGraphModel>
  </diagram>
</mxfile>
